name D:\school\WTK\thesis\model\3dpredictsim\Results\debug_batch\Pog_s1_tmt_aCst_d05_k500_ig24_pas.mot
datacolumns 128
datarows 4
range 0.00000000 0.03370863
endheader
time	pelvis_tilt	pelvis_list	pelvis_rotation	pelvis_tx	pelvis_ty	pelvis_tz	hip_flexion_l	hip_adduction_l	hip_rotation_l	hip_flexion_r	hip_adduction_r	hip_rotation_r	knee_angle_l	knee_angle_r	ankle_angle_l	ankle_angle_r	subtalar_angle_l	subtalar_angle_r	tmt_angle_l	tmt_angle_r	mtp_angle_l	mtp_angle_r	lumbar_extension	lumbar_bending	lumbar_rotation	arm_flex_l	arm_add_l	arm_rot_l	arm_flex_r	arm_add_r	arm_rot_r	elbow_flex_l	elbow_flex_r	pro_sup_l	pro_sup_r	glut_med1_l/activation	glut_med2_l/activation	glut_med3_l/activation	glut_min1_l/activation	glut_min2_l/activation	glut_min3_l/activation	semimem_l/activation	semiten_l/activation	bifemlh_l/activation	bifemsh_l/activation	sar_l/activation	add_long_l/activation	add_brev_l/activation	add_mag1_l/activation	add_mag2_l/activation	add_mag3_l/activation	tfl_l/activation	pect_l/activation	grac_l/activation	glut_max1_l/activation	glut_max2_l/activation	glut_max3_l/activation	iliacus_l/activation	psoas_l/activation	quad_fem_l/activation	gem_l/activation	peri_l/activation	rect_fem_l/activation	vas_med_l/activation	vas_int_l/activation	vas_lat_l/activation	med_gas_l/activation	lat_gas_l/activation	soleus_l/activation	tib_post_l/activation	flex_dig_l/activation	flex_hal_l/activation	tib_ant_l/activation	per_brev_l/activation	per_long_l/activation	per_tert_l/activation	ext_dig_l/activation	ext_hal_l/activation	ercspn_l/activation	intobl_l/activation	extobl_l/activation	glut_med1_r/activation	glut_med2_r/activation	glut_med3_r/activation	glut_min1_r/activation	glut_min2_r/activation	glut_min3_r/activation	semimem_r/activation	semiten_r/activation	bifemlh_r/activation	bifemsh_r/activation	sar_r/activation	add_long_r/activation	add_brev_r/activation	add_mag1_r/activation	add_mag2_r/activation	add_mag3_r/activation	tfl_r/activation	pect_r/activation	grac_r/activation	glut_max1_r/activation	glut_max2_r/activation	glut_max3_r/activation	iliacus_r/activation	psoas_r/activation	quad_fem_r/activation	gem_r/activation	peri_r/activation	rect_fem_r/activation	vas_med_r/activation	vas_int_r/activation	vas_lat_r/activation	med_gas_r/activation	lat_gas_r/activation	soleus_r/activation	tib_post_r/activation	flex_dig_r/activation	flex_hal_r/activation	tib_ant_r/activation	per_brev_r/activation	per_long_r/activation	per_tert_r/activation	ext_dig_r/activation	ext_hal_r/activation	ercspn_r/activation	intobl_r/activation	extobl_r/activation	
          0.00000000	         -2.92364093	         -2.58261167	          6.50066317	          0.00000000	          0.85419052	         -0.00325484	        -18.14991082	         -2.40091976	          7.88584063	         31.99079317	          3.39865436	         -2.63076775	         -9.49736937	        -14.73928252	         -1.11137861	          6.14446752	         11.70227781	         -3.75336030	          3.26594708	          0.06336041	         22.87961338	         -0.09708185	         -2.00303107	          1.04542899	         -2.22651268	          9.21674878	        -13.46786932	         19.35660520	        -10.04954147	        -13.55810113	         11.62659396	         39.14098046	         11.34936682	         86.51662706	         86.51662706	          0.24323562	          0.08700782	          0.05130875	          0.29337144	          0.19114073	          0.09542609	          0.05000171	          0.05000016	          0.05000012	          0.07190188	          0.09936417	          0.11901028	          0.12085194	          0.05000521	          0.05000214	          0.05000062	          0.30017681	          0.10646996	          0.05000124	          0.05000121	          0.05000078	          0.05000066	          0.38025824	          0.60275247	          0.05000014	          0.05000042	          0.05000012	          0.25098329	          0.12134912	          0.05009015	          0.08455025	          0.28588644	          0.38517262	          0.28081126	          0.23947873	          0.25746631	          0.33017775	          0.05000000	          0.05936485	          0.15367853	          0.05000005	          0.05000001	          0.05000006	          0.05000003	          0.05127922	          0.05078288	          0.05936349	          0.05936353	          0.05000009	          0.05936355	          0.05936354	          0.05936335	          0.26823842	          0.05000053	          0.05936355	          0.05000012	          0.05000015	          0.11791936	          0.25975586	          0.12302655	          0.14639686	          0.12766549	          0.05000011	          0.05942271	          0.06642402	          0.05000027	          0.05000038	          0.16847423	          0.05660132	          0.05000029	          0.41999583	          0.23431904	          0.14862432	          0.06082318	          0.19316840	          0.19066754	          0.16719403	          0.05000017	          0.05000011	          0.05347109	          0.05000000	          0.05000023	          0.05000021	          0.60187559	          0.36267321	          0.20748751	          0.37573366	          0.57977774	          0.32639868	          0.05936353	          0.09113413	          0.09456302	
          0.01123621	         -2.91272998	         -2.67644488	          6.75909214	          0.01744220	          0.85312097	         -0.00302212	        -17.88784499	         -2.71948921	          7.67298034	         31.32301082	          3.79096410	         -2.39638772	        -11.68131204	        -15.05849238	         -2.08127167	          5.48552269	         12.81360847	         -4.26549257	          2.70484597	          0.06177025	         24.01689088	         -0.06819069	         -1.76724489	          1.27882458	         -2.31728906	          8.88787768	        -13.48771587	         19.38701460	        -11.29015127	        -13.54767423	         11.51830612	         40.45338113	         11.37402194	         86.51662706	         86.51662706	          0.20486968	          0.07328394	          0.05936327	          0.24709753	          0.16099180	          0.08037440	          0.05000150	          0.05000026	          0.05000046	          0.06056069	          0.08369138	          0.21614259	          0.22571690	          0.05943200	          0.05936399	          0.05936376	          0.25282950	          0.08968079	          0.05000162	          0.05000734	          0.05001227	          0.05936305	          0.32027949	          0.55212685	          0.05936345	          0.05936337	          0.05000104	          0.21139528	          0.14004497	          0.14004516	          0.14004487	          0.24079308	          0.32441868	          0.23651841	          0.20170536	          0.21685581	          0.27809831	          0.05000001	          0.05000117	          0.15122887	          0.05000004	          0.05000002	          0.05000007	          0.06582267	          0.05936354	          0.05000015	          0.05000001	          0.05000006	          0.13584096	          0.05000005	          0.05000006	          0.05000007	          0.22746453	          0.05000008	          0.05000010	          0.05000006	          0.05000139	          0.09931983	          0.21878429	          0.34960266	          0.23204575	          0.13974081	          0.05000039	          0.05007582	          0.05598976	          0.09956795	          0.11979980	          0.14328663	          0.05000007	          0.05000094	          0.50751412	          0.19735953	          0.12518158	          0.05936370	          0.20556714	          0.22224182	          0.18289496	          0.05000006	          0.05000030	          0.05000000	          0.05936355	          0.07048107	          0.07048051	          0.52015101	          0.38814092	          0.24181503	          0.31646862	          0.56248771	          0.27491530	          0.05000003	          0.07675939	          0.07964743	
          0.02247242	         -2.89777415	         -2.76821040	          6.98199192	          0.03511592	          0.85202473	         -0.00280153	        -17.53559200	         -3.01812241	          7.44558057	         30.47676044	          4.11107802	         -2.12041835	        -14.00028006	        -15.58046430	         -3.22418388	          5.00952074	         13.83341203	         -4.80628803	          2.10611535	         -0.05018263	         24.91270421	         -0.19334042	         -1.51465214	          1.51489134	         -2.39642035	          8.46671930	        -13.50978469	         19.33732944	        -12.51348879	        -13.54305866	         11.46692965	         41.73659954	         11.41613860	         86.51662706	         86.51662706	          0.28330436	          0.06172475	          0.05000002	          0.32269168	          0.13559834	          0.06769683	          0.06324795	          0.05000006	          0.05000005	          0.05100838	          0.07049079	          0.18205013	          0.19011432	          0.05005777	          0.05000064	          0.05000033	          0.25983538	          0.08367827	          0.05000026	          0.05000050	          0.05000028	          0.05000018	          0.26976131	          0.51058403	          0.05000004	          0.05000018	          0.05000005	          0.17805155	          0.11795546	          0.11795562	          0.11795537	          0.20281237	          0.27324757	          0.19921196	          0.16989004	          0.18265082	          0.23423343	          0.09202565	          0.14944261	          0.18649606	          0.05000039	          0.15076440	          0.05000055	          0.07796626	          0.05000003	          0.05000003	          0.27544513	          0.29425182	          0.37475544	          0.38755061	          0.23647791	          0.18835254	          0.19158634	          0.09000774	          0.07878783	          0.08367917	          0.05000963	          0.08365399	          0.18427512	          0.29445930	          0.19544490	          0.15805899	          0.05000015	          0.05000240	          0.07927069	          0.21965735	          0.18305502	          0.13529475	          0.05000031	          0.05000012	          0.42746308	          0.16622976	          0.24929437	          0.05000018	          0.17314273	          0.18718733	          0.15404667	          0.05000033	          0.05000043	          0.05283561	          0.05000006	          0.05936403	          0.05936358	          0.59102974	          0.42909206	          0.21084239	          0.60920443	          0.63362668	          0.32295268	          0.07131301	          0.08504310	          0.06708451	
          0.03370863	         -2.88086829	         -2.84815482	          7.16403941	          0.05276232	          0.85093611	         -0.00255103	        -17.06158693	         -3.28630649	          7.21457004	         29.56299595	          4.41467036	         -1.84794372	        -16.48733304	        -16.05635721	         -4.44555681	          4.67265602	         14.76101725	         -5.37206603	          1.50153975	         -0.03528009	         25.29500943	         -0.19180134	         -1.27053257	          1.74199235	         -2.46405190	          8.00176972	        -13.54034990	         19.23849545	        -13.66005817	        -13.53871027	         11.48483411	         42.95790378	         11.43907137	         86.51662706	         86.51662706	          0.23861831	          0.05198883	          0.05000004	          0.27179302	          0.11421022	          0.05701894	          0.08650030	          0.05000025	          0.05000034	          0.05000005	          0.05937224	          0.20594596	          0.21990643	          0.05000051	          0.05001105	          0.12451208	          0.21885133	          0.07047981	          0.05000035	          0.05000138	          0.05000101	          0.05000076	          0.22721140	          0.44664807	          0.05000009	          0.05000038	          0.05000008	          0.14996717	          0.09935018	          0.09935031	          0.09935010	          0.17082243	          0.23014777	          0.16778991	          0.14309301	          0.15384107	          0.19728745	          0.18547121	          0.16644540	          0.15867827	          0.09176311	          0.26171885	          0.12907547	          0.10631500	          0.05000001	          0.05000002	          0.40643868	          0.44850556	          0.50736928	          0.32642223	          0.21490800	          0.40475463	          0.16136711	          0.12271682	          0.08854237	          0.07048043	          0.05000015	          0.07045917	          0.15520919	          0.24801471	          0.25516913	          0.19001260	          0.05000013	          0.05012352	          0.13334421	          0.29877950	          0.23167784	          0.18978996	          0.05000006	          0.05000006	          0.36003862	          0.14001011	          0.27203662	          0.05000001	          0.21379330	          0.25403731	          0.19626335	          0.05000000	          0.05000002	          0.05000000	          0.05000000	          0.05000049	          0.05000012	          0.69900886	          0.36141066	          0.17758587	          0.67061321	          0.65066710	          0.44812192	          0.09373365	          0.07162911	          0.05650316	
